<svg width="256" height="256" viewBox="0 0 256 256" fill="none" xmlns="http://www.w3.org/2000/svg">
<path d="M213.66 82.34L157.66 26.34C156.917 25.5973 156.034 25.0084 155.063 24.6069C154.092 24.2054 153.051 23.9992 152 24H56C51.7565 24 47.6869 25.6857 44.6863 28.6863C41.6857 31.6869 40 35.7565 40 40V216C40 220.243 41.6857 224.313 44.6863 227.314C47.6869 230.314 51.7565 232 56 232H200C204.243 232 208.313 230.314 211.314 227.314C214.314 224.313 216 220.243 216 216V88C216.001 86.9491 215.795 85.9084 215.393 84.9372C214.992 83.966 214.403 83.0835 213.66 82.34ZM160 51.31L188.69 80H160V51.31ZM200 216H56V40H144V88C144 90.1217 144.843 92.1566 146.343 93.6569C147.843 95.1571 149.878 96 152 96H200V216ZM157.66 133.66L139.31 152L157.66 170.34C158.403 171.083 158.993 171.966 159.395 172.937C159.797 173.908 160.004 174.949 160.004 176C160.004 177.051 159.797 178.092 159.395 179.063C158.993 180.034 158.403 180.917 157.66 181.66C156.917 182.403 156.034 182.993 155.063 183.395C154.092 183.797 153.051 184.004 152 184.004C150.949 184.004 149.908 183.797 148.937 183.395C147.966 182.993 147.083 182.403 146.34 181.66L128 163.31L109.66 181.66C108.917 182.403 108.034 182.993 107.063 183.395C106.092 183.797 105.051 184.004 104 184.004C102.949 184.004 101.908 183.797 100.937 183.395C99.9657 182.993 99.0833 182.403 98.34 181.66C97.5967 180.917 97.0071 180.034 96.6049 179.063C96.2026 178.092 95.9956 177.051 95.9956 176C95.9956 174.949 96.2026 173.908 96.6049 172.937C97.0071 171.966 97.5967 171.083 98.34 170.34L116.69 152L98.34 133.66C96.8389 132.159 95.9956 130.123 95.9956 128C95.9956 125.877 96.8389 123.841 98.34 122.34C99.8411 120.839 101.877 119.996 104 119.996C106.123 119.996 108.159 120.839 109.66 122.34L128 140.69L146.34 122.34C147.083 121.597 147.966 121.007 148.937 120.605C149.908 120.203 150.949 119.996 152 119.996C153.051 119.996 154.092 120.203 155.063 120.605C156.034 121.007 156.917 121.597 157.66 122.34C158.403 123.083 158.993 123.966 159.395 124.937C159.797 125.908 160.004 126.949 160.004 128C160.004 129.051 159.797 130.092 159.395 131.063C158.993 132.034 158.403 132.917 157.66 133.66Z" fill="#C5C5C5"/>
</svg>
